<svg width="57" height="20" viewBox="0 0 57 44" fill="none" xmlns="http://www.w3.org/2000/svg">
<g clip-path="url(#clip0_519_2529)">
<path d="M29.965 11.7451V22.7701H21.3653V11.7451H18.25V35.9655H21.3653V25.9201H29.965V35.9655H33.0803V11.7451H29.965Z" fill="#009AE0"/>
<path d="M43.474 14.9194H43.3987C43.2488 14.9198 43.099 14.9288 42.9502 14.9464C43.1282 14.9464 43.2925 14.9228 43.4877 14.9194H43.474Z" fill="#009AE0"/>
<path d="M49.5059 21.0801H49.5846C49.7345 21.0797 49.8843 21.0707 50.0331 21.0532C49.8551 21.07 49.6736 21.0768 49.4922 21.0801H49.5059Z" fill="#009AE0"/>
<path d="M44.6412 1.87282C43.8779 2.54918 43.2601 3.37685 42.8261 4.30454C42.3921 5.23224 42.1511 6.24019 42.1182 7.26591V10.409H45.2472C45.2472 10.2117 45.2883 6.87473 45.3225 6.68435C45.5094 5.69285 46.0319 4.7981 46.8003 4.1538C47.5688 3.50949 48.5351 3.15585 49.5333 3.1536C50.5843 3.1551 51.5985 3.54518 52.3849 4.25035C53.1712 4.95552 53.6753 5.92711 53.8023 6.98206L53.8605 16.7228C53.8531 17.7931 53.4582 18.8236 52.7505 19.6196C52.0427 20.4155 51.0712 20.9219 50.0194 21.0428C49.8706 21.0608 49.7208 21.07 49.571 21.0705H49.4922C48.4852 21.0597 47.5134 20.6939 46.7446 20.036C45.9759 19.3781 45.4584 18.4695 45.2814 17.467H42.1387C42.3058 19.1969 43.0594 20.815 44.2718 22.0471C45.4841 23.2793 47.0805 24.0496 48.7904 24.2274C49.0403 24.2517 49.2971 24.2655 49.5538 24.2655C49.8215 24.2663 50.089 24.2512 50.3549 24.2205C52.1594 24.0247 53.8308 23.1684 55.0542 21.8128C56.2775 20.4573 56.9683 18.6961 56.9964 16.8613V13.6248V7.45629C56.9846 5.47371 56.1982 3.57622 54.8085 2.17755C53.4188 0.778873 51.5386 -0.00754853 49.5778 -0.0102539H49.5504C47.752 -0.00765481 46.0162 0.658184 44.6686 1.86243" fill="#009AE0"/>
<path d="M1.64355 23.8948H1.64715L1.64355 23.8916V23.8948Z" fill="#009AE0"/>
<path d="M1.64355 23.8948H1.64715L1.64355 23.8916V23.8948Z" fill="#009AE0"/>
<path d="M14.9398 18.5158C14.7668 16.7818 14.0064 15.1615 12.7873 13.9295C11.5682 12.6975 9.96544 11.9294 8.25045 11.7554C8.00054 11.7311 7.74378 11.7173 7.4836 11.7173C7.21485 11.7183 6.94632 11.7333 6.6791 11.7623C4.86921 11.953 3.19086 12.8067 1.96051 14.1623C0.730159 15.5179 0.0328282 17.2819 0 19.1215L0.0273854 28.5265C0.0445557 30.5152 0.838852 32.4163 2.23698 33.8151C3.63511 35.2139 5.5236 35.9968 7.49045 35.9931H7.51441C9.31885 35.9895 11.0607 35.3241 12.4168 34.1203C13.1837 33.4459 13.805 32.619 14.2421 31.6912C14.6791 30.7633 14.9224 29.7544 14.9569 28.7273V25.5842H6.99063V28.7273H11.8142C11.8007 28.9206 11.7732 29.1126 11.7321 29.3019C11.5413 30.296 11.0144 31.192 10.2417 31.8362C9.46906 32.4804 8.49877 32.8327 7.4973 32.8327C6.4414 32.8338 5.42166 32.4439 4.6307 31.7366C3.83975 31.0293 3.33233 30.0536 3.20432 28.9938L3.13928 19.2634C3.14963 18.19 3.54865 17.1577 4.26086 16.3616C4.97307 15.5656 5.94909 15.0611 7.00432 14.9434C7.18234 14.9434 7.36378 14.9192 7.54522 14.9157C8.55703 14.9259 9.53371 15.2922 10.3072 15.9518C11.0808 16.6114 11.6028 17.5229 11.7834 18.5296L14.9398 18.5158Z" fill="#009AE0"/>
<path d="M47.7428 26.1177V28.7346C47.73 28.9299 47.7048 29.1241 47.6675 29.3162C47.48 30.3074 46.9573 31.2017 46.189 31.8459C45.4207 32.4901 44.4548 32.844 43.4567 32.8469C42.4145 32.8451 41.4084 32.461 40.6251 31.7658C39.8419 31.0706 39.3348 30.1116 39.198 29.0669V29.0046L39.1192 19.2639C39.126 18.1928 39.5211 17.1615 40.2297 16.3653C40.9383 15.5691 41.911 15.0633 42.9637 14.9439C42.8781 14.9439 42.796 14.9681 42.7138 14.9785C42.796 14.9785 42.8781 14.9508 42.9603 14.9439C43.1092 14.9259 43.2589 14.9167 43.4088 14.9162H43.5012C44.5093 14.9272 45.4818 15.2941 46.2507 15.9533C47.0196 16.6126 47.5365 17.5228 47.712 18.5265H50.8513C50.6856 16.7968 49.9328 15.1784 48.721 13.946C47.5091 12.7137 45.9128 11.9435 44.203 11.7662C43.9495 11.7383 43.6946 11.7245 43.4396 11.7246C43.172 11.7256 42.9046 11.7406 42.6385 11.7696C40.834 11.9669 39.163 12.8242 37.9398 14.1802C36.7167 15.5361 36.0258 17.2973 35.9971 19.1323V20.24V22.3654V22.4692L36.0142 28.5339C36.0268 30.5162 36.8136 32.4131 38.2031 33.8116C39.5925 35.2101 41.4722 35.9968 43.4327 36.0004H43.4567C45.2556 35.9965 46.9913 35.3295 48.3385 34.1242C49.1028 33.4492 49.7216 32.6224 50.1563 31.6952C50.5909 30.768 50.8322 29.7602 50.865 28.7346V26.1142L47.7428 26.1177ZM41.7724 15.1585L42.0018 15.1031L41.7655 15.1585H41.7724ZM40.9679 15.4077L41.0398 15.3835L40.9473 15.4146L40.9679 15.4077ZM36.2846 20.5654C36.2866 20.5505 36.2866 20.5353 36.2846 20.5204V20.5654Z" fill="#009AE0"/>
</g>
<defs>
<clipPath id="clip0_519_2529">
<rect width="57" height="44" fill="white"/>
</clipPath>
</defs>
</svg>
